<svg width="1024" height="1024" viewBox="0 0 1024 1024" fill="none" xmlns="http://www.w3.org/2000/svg">
<g clip-path="url(#clip0_5_285)">
<mask id="mask0_5_285" style="mask-type:luminance" maskUnits="userSpaceOnUse" x="0" y="0" width="1024" height="1024">
<path d="M794 0H230C102.975 0 0 102.975 0 230V794C0 921.026 102.975 1024 230 1024H794C921.026 1024 1024 921.026 1024 794V230C1024 102.975 921.026 0 794 0Z" fill="white"/>
</mask>
<g mask="url(#mask0_5_285)">
<path d="M1024 0H0V1024H1024V0Z" fill="url(#paint0_radial_5_285)"/>
<path d="M826 280H198C188.059 280 180 288.059 180 298V726C180 735.941 188.059 744 198 744H826C835.941 744 844 735.941 844 726V298C844 288.059 835.941 280 826 280Z" fill="#FFFBF4" stroke="#3A3024" stroke-opacity="0.18" stroke-width="3"/>
<path d="M180 280L512 540L844 280" stroke="#3A3024" stroke-opacity="0.32" stroke-width="4"/>
<path d="M180 744L420 530" stroke="#3A3024" stroke-opacity="0.18" stroke-width="3"/>
<path d="M844 744L604 530" stroke="#3A3024" stroke-opacity="0.18" stroke-width="3"/>
<path d="M512 632C562.81 632 604 590.81 604 540C604 489.19 562.81 448 512 448C461.19 448 420 489.19 420 540C420 590.81 461.19 632 512 632Z" fill="url(#paint1_radial_5_285)"/>
<path d="M512 620C556.183 620 592 584.183 592 540C592 495.817 556.183 460 512 460C467.817 460 432 495.817 432 540C432 584.183 467.817 620 512 620Z" stroke="#8E3F12" stroke-opacity="0.5" stroke-width="3"/>
<path d="M540 510C530 498 510 496 496 504C482 511 478 526 488 536C494 542 506 544 516 546C530 550 544 554 544 568C544 580 532 590 514 590C498 590 484 582 478 572" stroke="white" stroke-width="6" stroke-linecap="round"/>
</g>
</g>
<defs>
<radialGradient id="paint0_radial_5_285" cx="0" cy="0" r="1" gradientUnits="userSpaceOnUse" gradientTransform="translate(307.2 256) scale(819.2)">
<stop stop-color="#3A2A1C"/>
<stop offset="0.6" stop-color="#3A2A1C"/>
<stop offset="1" stop-color="#3A2A1C"/>
</radialGradient>
<radialGradient id="paint1_radial_5_285" cx="0" cy="0" r="1" gradientUnits="userSpaceOnUse" gradientTransform="translate(512 532.64) scale(101.2)">
<stop stop-color="#C9622A"/>
<stop offset="0.7" stop-color="#B0521C"/>
<stop offset="1" stop-color="#8E3F12"/>
</radialGradient>
<clipPath id="clip0_5_285">
<rect width="1024" height="1024" fill="white"/>
</clipPath>
</defs>
</svg>
