<svg width="480" height="480" viewBox="0 0 480 480" fill="none" xmlns="http://www.w3.org/2000/svg">
<g filter="url(#filter0_f_5_229)">
<path d="M307.044 72.4431L111.414 114.025L165.471 368.344L361.101 326.761L307.044 72.4431Z" fill="#E8D8B8"/>
<path opacity="0.65" d="M234.344 110.387L138.486 130.763C137.946 130.877 137.601 131.409 137.716 131.949L139.379 139.774C139.494 140.314 140.025 140.659 140.565 140.544L236.424 120.169C236.964 120.054 237.309 119.523 237.194 118.983L235.53 111.158C235.416 110.617 234.885 110.272 234.344 110.387Z" fill="#B0521C"/>
<path d="M144.576 164.228L297.167 131.793" stroke="#A89F95" stroke-width="3" stroke-linecap="round"/>
<path d="M148.319 181.834L300.91 149.4" stroke="#A89F95" stroke-width="3" stroke-linecap="round"/>
<path d="M152.062 199.441L265.527 175.323" stroke="#A89F95" stroke-width="3" stroke-linecap="round"/>
<path d="M158.715 230.742L311.306 198.307" stroke="#A89F95" stroke-width="3" stroke-linecap="round"/>
<path d="M162.457 248.348L238.753 232.131" stroke="#A89F95" stroke-width="3" stroke-linecap="round"/>
<path d="M169.11 279.649L321.701 247.215" stroke="#A89F95" stroke-width="3" stroke-linecap="round"/>
<path d="M172.853 297.256L307.837 268.564" stroke="#A89F95" stroke-width="3" stroke-linecap="round"/>
<path d="M176.595 314.862L321.361 284.091" stroke="#A89F95" stroke-width="3" stroke-linecap="round"/>
<path d="M180.338 332.469L235.114 320.826" stroke="#A89F95" stroke-width="3" stroke-linecap="round"/>
</g>
<path d="M376.993 87.184L177.48 73.2327L158.646 342.575L358.159 356.526L376.993 87.184Z" fill="#FEFCF7"/>
<path opacity="0.7" d="M316.603 105.015L198.89 96.7835C198.339 96.745 197.861 97.1604 197.823 97.7113L197.265 105.692C197.226 106.243 197.642 106.721 198.193 106.759L315.905 114.99C316.456 115.029 316.934 114.614 316.972 114.063L317.531 106.082C317.569 105.531 317.154 105.053 316.603 105.015Z" fill="#B0521C"/>
<path d="M195.521 130.631L351.141 141.513" stroke="#BCB3A8" stroke-width="3" stroke-linecap="round"/>
<path d="M194.266 148.587L349.886 159.469" stroke="#BCB3A8" stroke-width="3" stroke-linecap="round"/>
<path d="M193.01 166.543L330.674 176.17" stroke="#BCB3A8" stroke-width="3" stroke-linecap="round"/>
<path d="M190.777 198.465L346.397 209.347" stroke="#BCB3A8" stroke-width="3" stroke-linecap="round"/>
<path d="M189.521 216.421L287.283 223.258" stroke="#BCB3A8" stroke-width="3" stroke-linecap="round"/>
<path d="M187.29 248.344L342.91 259.226" stroke="#BCB3A8" stroke-width="3" stroke-linecap="round"/>
<path d="M186.034 266.3L333.674 276.624" stroke="#BCB3A8" stroke-width="3" stroke-linecap="round"/>
<path d="M184.778 284.256L322.442 293.882" stroke="#BCB3A8" stroke-width="3" stroke-linecap="round"/>
<path d="M183.522 302.212L261.332 307.653" stroke="#BCB3A8" stroke-width="3" stroke-linecap="round"/>
<path opacity="0.12" d="M337.887 331.05L182.267 320.168L182.127 322.163L337.747 333.045L337.887 331.05Z" fill="#1C1815"/>
<path opacity="0.5" d="M336.471 336.966L280.607 333.059C280.056 333.021 279.578 333.436 279.54 333.987L278.703 345.958C278.664 346.509 279.079 346.987 279.63 347.025L335.494 350.932C336.045 350.97 336.523 350.555 336.561 350.004L337.398 338.033C337.437 337.482 337.021 337.004 336.471 336.966Z" fill="#1C1815"/>
<path d="M392.977 101.804L193.251 112.272L206.44 363.926L406.166 353.459L392.977 101.804Z" fill="white"/>
<path opacity="0.85" d="M295.264 128.956L217.371 133.038C216.819 133.067 216.396 133.537 216.424 134.089L216.843 142.078C216.872 142.629 217.343 143.053 217.894 143.024L295.787 138.942C296.339 138.913 296.762 138.442 296.733 137.891L296.315 129.902C296.286 129.35 295.815 128.927 295.264 128.956Z" fill="#B0521C"/>
<path d="M218.151 167.043L373.938 158.879" stroke="#C4BAB0" stroke-width="3" stroke-linecap="round"/>
<path d="M219.094 185.019L374.88 176.854" stroke="#C4BAB0" stroke-width="3" stroke-linecap="round"/>
<path d="M220.036 202.994L337.874 196.818" stroke="#C4BAB0" stroke-width="3" stroke-linecap="round"/>
<path d="M221.711 234.95L377.497 226.786" stroke="#C4BAB0" stroke-width="3" stroke-linecap="round"/>
<path d="M222.652 252.926L360.463 245.703" stroke="#C4BAB0" stroke-width="3" stroke-linecap="round"/>
<path d="M223.595 270.901L301.488 266.819" stroke="#C4BAB0" stroke-width="3" stroke-linecap="round"/>
<path d="M225.27 302.857L381.056 294.693" stroke="#C4BAB0" stroke-width="3" stroke-linecap="round"/>
<path d="M226.211 320.832L374.008 313.087" stroke="#C4BAB0" stroke-width="3" stroke-linecap="round"/>
<path d="M227.153 338.808L265.101 336.819" stroke="#C4BAB0" stroke-width="3" stroke-linecap="round"/>
<defs>
<filter id="filter0_f_5_229" x="110.414" y="71.443" width="251.687" height="297.901" filterUnits="userSpaceOnUse" color-interpolation-filters="sRGB">
<feFlood flood-opacity="0" result="BackgroundImageFix"/>
<feBlend mode="normal" in="SourceGraphic" in2="BackgroundImageFix" result="shape"/>
<feGaussianBlur stdDeviation="0.5" result="effect1_foregroundBlur_5_229"/>
</filter>
</defs>
</svg>
