<svg width="281" height="197" viewBox="0 0 281 197" fill="none" xmlns="http://www.w3.org/2000/svg">
<path d="M271.951 0.661377H8.19086C4.01559 0.661377 0.630859 4.0461 0.630859 8.22138V187.981C0.630859 192.157 4.01559 195.541 8.19086 195.541H271.951C276.126 195.541 279.511 192.157 279.511 187.981V8.22138C279.511 4.0461 276.126 0.661377 271.951 0.661377Z" fill="white" stroke="#3A3024" stroke-opacity="0.18" stroke-width="1.26"/>
<path d="M0.630859 0.661377L140.071 109.861L279.511 0.661377" stroke="#3A3024" stroke-opacity="0.32" stroke-width="1.68"/>
<path d="M0.630859 195.541L101.431 105.661" stroke="#3A3024" stroke-opacity="0.18" stroke-width="1.26"/>
<path d="M279.511 195.541L178.711 105.661" stroke="#3A3024" stroke-opacity="0.18" stroke-width="1.26"/>
<path d="M140.072 148.501C161.412 148.501 178.712 131.202 178.712 109.861C178.712 88.5212 161.412 71.2214 140.072 71.2214C118.731 71.2214 101.432 88.5212 101.432 109.861C101.432 131.202 118.731 148.501 140.072 148.501Z" fill="url(#paint0_radial_6_394)"/>
<path d="M140.071 143.461C158.627 143.461 173.671 128.418 173.671 109.861C173.671 91.3045 158.627 76.2612 140.071 76.2612C121.514 76.2612 106.471 91.3045 106.471 109.861C106.471 128.418 121.514 143.461 140.071 143.461Z" stroke="#8E3F12" stroke-opacity="0.5" stroke-width="1.26"/>
<path d="M151.831 97.2613C147.631 92.2213 139.231 91.3813 133.351 94.7413C127.471 97.6813 125.791 103.981 129.991 108.181C132.511 110.701 137.551 111.541 141.751 112.381C147.631 114.061 153.511 115.741 153.511 121.621C153.511 126.661 148.471 130.861 140.911 130.861C134.191 130.861 128.311 127.501 125.791 123.301" stroke="white" stroke-width="2.52" stroke-linecap="round"/>
<defs>
<radialGradient id="paint0_radial_6_394" cx="0" cy="0" r="1" gradientUnits="userSpaceOnUse" gradientTransform="translate(140.072 106.77) scale(44.8224)">
<stop stop-color="#C9622A"/>
<stop offset="0.7" stop-color="#B0521C"/>
<stop offset="1" stop-color="#8E3F12"/>
</radialGradient>
</defs>
</svg>
