<svg width="480" height="480" viewBox="0 0 480 480" fill="none" xmlns="http://www.w3.org/2000/svg">
<g filter="url(#filter0_f_6_345)">
<path d="M340 80H140V400H340V80Z" fill="#FEFCF7"/>
<path d="M245 102H161C160.448 102 160 102.448 160 103V115C160 115.552 160.448 116 161 116H245C245.552 116 246 115.552 246 115V103C246 102.448 245.552 102 245 102Z" fill="#1F1A14"/>
<path d="M320 126H160V129H320V126Z" fill="#CCC4B9"/>
<path d="M280 136H160V139H280V136Z" fill="#CCC4B9"/>
<path d="M231 160H163C161.343 160 160 161.343 160 163V179C160 180.657 161.343 182 163 182H231C232.657 182 234 180.657 234 179V163C234 161.343 232.657 160 231 160Z" fill="#F4E5D2"/>
<path d="M179.008 169.8L178.551 170.811H172.379L172.752 169.8H179.008ZM178.126 171.734L177.623 172.768H172.379L172.752 171.734H178.126ZM180.208 167.275L179.469 168.854C179.346 168.768 179.197 168.674 179.022 168.572C178.849 168.467 178.651 168.38 178.426 168.309C178.205 168.235 177.958 168.198 177.688 168.198C177.26 168.198 176.887 168.306 176.57 168.521C176.253 168.737 176.007 169.072 175.832 169.528C175.659 169.983 175.573 170.568 175.573 171.282C175.573 172.002 175.659 172.588 175.832 173.041C176.007 173.49 176.253 173.821 176.57 174.033C176.887 174.243 177.26 174.347 177.688 174.347C177.958 174.347 178.205 174.312 178.426 174.241C178.648 174.17 178.842 174.086 179.008 173.987C179.177 173.889 179.319 173.798 179.433 173.715L180.18 175.294C179.845 175.571 179.465 175.78 179.04 175.922C178.615 176.06 178.165 176.129 177.688 176.129C176.881 176.129 176.167 175.938 175.545 175.557C174.927 175.172 174.442 174.62 174.091 173.9C173.74 173.176 173.565 172.304 173.565 171.282C173.565 170.263 173.74 169.391 174.091 168.664C174.442 167.938 174.927 167.383 175.545 166.998C176.167 166.61 176.881 166.416 177.688 166.416C178.183 166.416 178.642 166.49 179.063 166.638C179.485 166.786 179.866 166.998 180.208 167.275ZM185.218 176.129C184.507 176.129 183.875 176.014 183.321 175.783C182.77 175.549 182.337 175.231 182.024 174.827C181.71 174.424 181.553 173.967 181.553 173.456C181.553 173.062 181.642 172.701 181.82 172.371C182.002 172.039 182.248 171.764 182.559 171.545C182.87 171.324 183.218 171.182 183.602 171.12V171.056C183.098 170.954 182.688 170.71 182.374 170.322C182.06 169.931 181.903 169.477 181.903 168.96C181.903 168.471 182.047 168.035 182.333 167.653C182.619 167.269 183.011 166.967 183.51 166.749C184.012 166.527 184.581 166.416 185.218 166.416C185.855 166.416 186.423 166.527 186.922 166.749C187.423 166.97 187.817 167.273 188.103 167.658C188.39 168.04 188.534 168.474 188.537 168.96C188.534 169.48 188.374 169.934 188.057 170.322C187.74 170.71 187.334 170.954 186.839 171.056V171.12C187.217 171.182 187.56 171.324 187.868 171.545C188.179 171.764 188.425 172.039 188.607 172.371C188.791 172.701 188.885 173.062 188.888 173.456C188.885 173.967 188.727 174.424 188.413 174.827C188.099 175.231 187.665 175.549 187.111 175.783C186.56 176.014 185.929 176.129 185.218 176.129ZM185.218 174.661C185.535 174.661 185.812 174.604 186.049 174.49C186.286 174.373 186.471 174.213 186.603 174.01C186.738 173.804 186.806 173.567 186.806 173.299C186.806 173.025 186.737 172.784 186.598 172.575C186.46 172.362 186.272 172.196 186.035 172.076C185.798 171.953 185.526 171.891 185.218 171.891C184.913 171.891 184.641 171.953 184.401 172.076C184.161 172.196 183.972 172.362 183.833 172.575C183.698 172.784 183.63 173.025 183.63 173.299C183.63 173.567 183.696 173.804 183.829 174.01C183.961 174.213 184.147 174.373 184.387 174.49C184.627 174.604 184.904 174.661 185.218 174.661ZM185.218 170.437C185.483 170.437 185.718 170.383 185.924 170.276C186.131 170.168 186.292 170.019 186.409 169.828C186.526 169.637 186.585 169.417 186.585 169.168C186.585 168.921 186.526 168.706 186.409 168.521C186.292 168.334 186.132 168.187 185.929 168.083C185.726 167.975 185.489 167.921 185.218 167.921C184.95 167.921 184.713 167.975 184.507 168.083C184.301 168.187 184.139 168.334 184.022 168.521C183.909 168.706 183.852 168.921 183.852 169.168C183.852 169.417 183.91 169.637 184.027 169.828C184.144 170.019 184.306 170.168 184.512 170.276C184.718 170.383 184.953 170.437 185.218 170.437ZM190.66 176L194.579 168.244V168.18H190.013V166.545H196.647V168.203L192.723 176H190.66ZM198.548 174.707L198.497 175.215C198.457 175.621 198.38 176.026 198.267 176.429C198.156 176.836 198.039 177.203 197.916 177.533C197.796 177.862 197.699 178.121 197.625 178.308H196.351C196.397 178.127 196.46 177.873 196.54 177.547C196.62 177.223 196.695 176.86 196.766 176.457C196.837 176.054 196.882 175.643 196.9 175.224L196.923 174.707H198.548ZM203.705 176.129C203.052 176.129 202.471 176.009 201.96 175.769C201.452 175.529 201.049 175.198 200.75 174.777C200.452 174.355 200.296 173.872 200.284 173.327H202.223C202.244 173.693 202.398 173.99 202.685 174.218C202.971 174.446 203.311 174.56 203.705 174.56C204.019 174.56 204.296 174.49 204.536 174.352C204.779 174.21 204.968 174.015 205.104 173.766C205.242 173.513 205.311 173.224 205.311 172.898C205.311 172.565 205.241 172.273 205.099 172.021C204.96 171.768 204.768 171.571 204.522 171.43C204.276 171.288 203.994 171.216 203.677 171.213C203.4 171.213 203.131 171.27 202.869 171.384C202.611 171.497 202.409 171.653 202.264 171.85L200.487 171.531L200.935 166.545H206.715V168.18H202.583L202.338 170.548H202.394C202.56 170.314 202.811 170.12 203.146 169.966C203.482 169.812 203.857 169.735 204.273 169.735C204.842 169.735 205.35 169.869 205.796 170.137C206.242 170.405 206.595 170.773 206.853 171.24C207.112 171.705 207.239 172.241 207.236 172.847C207.239 173.484 207.092 174.05 206.793 174.546C206.498 175.038 206.084 175.426 205.551 175.709C205.022 175.989 204.407 176.129 203.705 176.129ZM212.338 176.208C211.544 176.205 210.86 176.009 210.288 175.621C209.719 175.234 209.28 174.672 208.972 173.936C208.668 173.201 208.517 172.316 208.52 171.282C208.52 170.251 208.672 169.372 208.977 168.646C209.285 167.92 209.723 167.367 210.293 166.989C210.865 166.607 211.547 166.416 212.338 166.416C213.129 166.416 213.809 166.607 214.378 166.989C214.951 167.37 215.391 167.924 215.698 168.651C216.006 169.374 216.159 170.251 216.155 171.282C216.155 172.319 216.002 173.205 215.694 173.941C215.389 174.677 214.952 175.238 214.383 175.626C213.813 176.014 213.132 176.208 212.338 176.208ZM212.338 174.55C212.879 174.55 213.312 174.278 213.635 173.733C213.958 173.189 214.118 172.371 214.115 171.282C214.115 170.565 214.041 169.968 213.893 169.491C213.749 169.014 213.543 168.655 213.275 168.415C213.01 168.175 212.698 168.055 212.338 168.055C211.799 168.055 211.368 168.324 211.045 168.863C210.722 169.402 210.559 170.208 210.556 171.282C210.556 172.008 210.628 172.615 210.773 173.101C210.92 173.584 211.128 173.947 211.396 174.19C211.664 174.43 211.978 174.55 212.338 174.55Z" fill="#B0521C"/>
<path d="M320 166H242V170H320V166Z" fill="#D6CDC1"/>
<path d="M320 192H160V195H320V192Z" fill="#CCC4B9"/>
<path d="M280 202H160V205H280V202Z" fill="#CCC4B9"/>
<path d="M219 220H163C161.343 220 160 221.343 160 223V239C160 240.657 161.343 242 163 242H219C220.657 242 222 240.657 222 239V223C222 221.343 220.657 220 219 220Z" fill="#F4E5D2"/>
<path d="M176.88 226.545V236H174.881V228.443H174.825L172.66 229.8V228.027L175.001 226.545H176.88ZM182.621 236.129C181.932 236.129 181.318 236.011 180.779 235.774C180.244 235.534 179.821 235.204 179.51 234.786C179.202 234.364 179.044 233.878 179.034 233.327H181.047C181.059 233.558 181.135 233.761 181.273 233.936C181.415 234.109 181.603 234.243 181.837 234.338C182.07 234.433 182.334 234.481 182.626 234.481C182.931 234.481 183.2 234.427 183.434 234.32C183.668 234.212 183.851 234.063 183.983 233.872C184.116 233.681 184.182 233.461 184.182 233.212C184.182 232.959 184.111 232.736 183.969 232.542C183.831 232.345 183.631 232.191 183.369 232.081C183.111 231.97 182.803 231.914 182.446 231.914H181.564V230.446H182.446C182.748 230.446 183.014 230.394 183.245 230.289C183.478 230.185 183.66 230.04 183.789 229.855C183.919 229.668 183.983 229.449 183.983 229.2C183.983 228.963 183.926 228.755 183.812 228.577C183.702 228.395 183.545 228.254 183.342 228.152C183.141 228.05 182.908 228 182.64 228C182.369 228 182.121 228.049 181.897 228.147C181.672 228.243 181.492 228.38 181.356 228.558C181.221 228.737 181.149 228.946 181.139 229.186H179.224C179.233 228.641 179.388 228.161 179.69 227.746C179.992 227.33 180.398 227.006 180.909 226.772C181.423 226.535 182.003 226.416 182.649 226.416C183.302 226.416 183.872 226.535 184.362 226.772C184.851 227.009 185.231 227.329 185.502 227.732C185.776 228.132 185.911 228.581 185.908 229.08C185.911 229.609 185.747 230.051 185.414 230.405C185.085 230.759 184.656 230.983 184.126 231.079V231.153C184.822 231.242 185.351 231.484 185.714 231.877C186.081 232.268 186.262 232.758 186.259 233.346C186.262 233.884 186.107 234.363 185.793 234.781C185.482 235.2 185.053 235.529 184.505 235.769C183.957 236.009 183.329 236.129 182.621 236.129ZM190.723 236V228.909H192.598V230.16H192.681C192.828 229.745 193.075 229.417 193.419 229.177C193.764 228.937 194.176 228.817 194.657 228.817C195.143 228.817 195.557 228.938 195.898 229.181C196.24 229.422 196.468 229.748 196.582 230.16H196.655C196.8 229.754 197.062 229.429 197.44 229.186C197.822 228.94 198.273 228.817 198.793 228.817C199.455 228.817 199.992 229.028 200.404 229.449C200.82 229.868 201.027 230.462 201.027 231.231V236H199.065V231.619C199.065 231.225 198.961 230.93 198.751 230.733C198.542 230.536 198.28 230.437 197.967 230.437C197.61 230.437 197.331 230.551 197.131 230.779C196.931 231.003 196.831 231.3 196.831 231.67V236H194.924V231.577C194.924 231.23 194.824 230.953 194.624 230.746C194.427 230.54 194.167 230.437 193.844 230.437C193.626 230.437 193.429 230.493 193.253 230.603C193.081 230.711 192.944 230.863 192.842 231.06C192.741 231.254 192.69 231.482 192.69 231.744V236H190.723ZM204.603 236.134C204.15 236.134 203.747 236.055 203.393 235.898C203.039 235.738 202.759 235.503 202.553 235.192C202.35 234.878 202.248 234.487 202.248 234.02C202.248 233.626 202.321 233.295 202.465 233.027C202.61 232.759 202.807 232.544 203.056 232.381C203.305 232.218 203.589 232.094 203.906 232.011C204.226 231.928 204.561 231.87 204.912 231.836C205.324 231.793 205.657 231.753 205.909 231.716C206.162 231.676 206.345 231.617 206.459 231.54C206.572 231.464 206.629 231.35 206.629 231.199V231.171C206.629 230.879 206.537 230.653 206.352 230.493C206.171 230.333 205.912 230.252 205.577 230.252C205.223 230.252 204.941 230.331 204.732 230.488C204.523 230.642 204.384 230.836 204.316 231.07L202.498 230.922C202.59 230.491 202.772 230.119 203.042 229.805C203.313 229.488 203.662 229.245 204.09 229.075C204.521 228.903 205.02 228.817 205.586 228.817C205.98 228.817 206.357 228.863 206.717 228.955C207.08 229.048 207.402 229.191 207.682 229.385C207.965 229.578 208.188 229.828 208.351 230.132C208.514 230.434 208.596 230.796 208.596 231.217V236H206.731V235.017H206.676C206.562 235.238 206.409 235.434 206.218 235.603C206.028 235.769 205.798 235.9 205.531 235.995C205.263 236.088 204.954 236.134 204.603 236.134ZM205.166 234.777C205.455 234.777 205.711 234.72 205.932 234.606C206.154 234.489 206.328 234.332 206.454 234.135C206.58 233.938 206.643 233.715 206.643 233.466V232.713C206.582 232.753 206.497 232.79 206.389 232.824C206.285 232.855 206.166 232.884 206.034 232.912C205.901 232.936 205.769 232.959 205.637 232.981C205.504 232.999 205.384 233.016 205.277 233.032C205.046 233.065 204.844 233.119 204.672 233.193C204.5 233.267 204.366 233.367 204.27 233.493C204.175 233.616 204.127 233.77 204.127 233.955C204.127 234.223 204.224 234.427 204.418 234.569C204.615 234.707 204.864 234.777 205.166 234.777ZM213.316 238.807C212.679 238.807 212.133 238.719 211.677 238.544C211.225 238.371 210.865 238.136 210.597 237.837C210.329 237.539 210.156 237.203 210.076 236.831L211.894 236.586C211.95 236.728 212.038 236.86 212.158 236.983C212.278 237.106 212.436 237.205 212.633 237.279C212.833 237.356 213.076 237.394 213.362 237.394C213.79 237.394 214.143 237.29 214.42 237.08C214.7 236.874 214.84 236.528 214.84 236.042V234.744H214.757C214.67 234.941 214.541 235.127 214.369 235.303C214.197 235.478 213.975 235.621 213.704 235.732C213.433 235.843 213.11 235.898 212.735 235.898C212.202 235.898 211.717 235.775 211.28 235.529C210.847 235.28 210.5 234.9 210.242 234.389C209.986 233.875 209.859 233.225 209.859 232.441C209.859 231.637 209.989 230.967 210.251 230.428C210.513 229.889 210.86 229.486 211.294 229.218C211.731 228.951 212.21 228.817 212.73 228.817C213.127 228.817 213.459 228.884 213.727 229.02C213.995 229.152 214.21 229.318 214.373 229.518C214.54 229.715 214.667 229.909 214.757 230.1H214.831V228.909H216.783V236.069C216.783 236.672 216.636 237.177 216.34 237.583C216.045 237.99 215.635 238.294 215.112 238.498C214.592 238.704 213.993 238.807 213.316 238.807ZM213.358 234.421C213.675 234.421 213.943 234.343 214.161 234.186C214.383 234.026 214.552 233.798 214.669 233.502C214.789 233.204 214.849 232.847 214.849 232.431C214.849 232.016 214.791 231.656 214.674 231.351C214.557 231.043 214.387 230.805 214.166 230.636C213.944 230.466 213.675 230.382 213.358 230.382C213.035 230.382 212.762 230.469 212.541 230.645C212.319 230.817 212.151 231.057 212.038 231.365C211.924 231.673 211.867 232.028 211.867 232.431C211.867 232.841 211.924 233.195 212.038 233.493C212.155 233.789 212.322 234.018 212.541 234.181C212.762 234.341 213.035 234.421 213.358 234.421Z" fill="#B0521C"/>
<path d="M320 226H230V230H320V226Z" fill="#D6CDC1"/>
<path d="M320 252H160V255H320V252Z" fill="#CCC4B9"/>
<path d="M260 262H160V265H260V262Z" fill="#CCC4B9"/>
<path d="M207 280H163C161.343 280 160 281.343 160 283V299C160 300.657 161.343 302 163 302H207C208.657 302 210 300.657 210 299V283C210 281.343 208.657 280 207 280Z" fill="#F4E5D2"/>
<path d="M172.822 296V286.545H179.192V288.194H174.821V290.446H178.865V292.094H174.821V294.352H179.211V296H172.822ZM182.711 291.901V296H180.745V288.909H182.619V290.16H182.702C182.859 289.748 183.122 289.422 183.492 289.181C183.861 288.938 184.309 288.817 184.835 288.817C185.327 288.817 185.757 288.924 186.123 289.14C186.489 289.355 186.774 289.663 186.977 290.063C187.18 290.46 187.282 290.934 187.282 291.485V296H185.315V291.836C185.318 291.402 185.207 291.063 184.983 290.82C184.758 290.574 184.449 290.451 184.055 290.451C183.79 290.451 183.556 290.508 183.353 290.622C183.153 290.736 182.996 290.902 182.882 291.12C182.771 291.336 182.714 291.596 182.711 291.901ZM192.063 296.138C191.334 296.138 190.706 295.991 190.18 295.695C189.656 295.397 189.253 294.975 188.97 294.43C188.687 293.883 188.545 293.235 188.545 292.487C188.545 291.757 188.687 291.117 188.97 290.566C189.253 290.016 189.652 289.586 190.166 289.278C190.683 288.971 191.289 288.817 191.985 288.817C192.453 288.817 192.888 288.892 193.291 289.043C193.697 289.191 194.051 289.414 194.353 289.712C194.658 290.011 194.895 290.386 195.064 290.839C195.233 291.288 195.318 291.814 195.318 292.418V292.958H189.33V291.739H193.467C193.467 291.456 193.405 291.205 193.282 290.987C193.159 290.768 192.988 290.597 192.77 290.474C192.554 290.348 192.303 290.285 192.017 290.285C191.719 290.285 191.454 290.354 191.223 290.493C190.995 290.628 190.817 290.811 190.688 291.042C190.558 291.27 190.492 291.524 190.489 291.804V292.962C190.489 293.313 190.554 293.616 190.683 293.872C190.815 294.127 191.001 294.324 191.241 294.463C191.482 294.601 191.766 294.67 192.096 294.67C192.314 294.67 192.514 294.64 192.696 294.578C192.877 294.517 193.033 294.424 193.162 294.301C193.291 294.178 193.39 294.027 193.457 293.849L195.276 293.969C195.184 294.406 194.995 294.787 194.708 295.114C194.425 295.437 194.059 295.689 193.61 295.871C193.163 296.049 192.648 296.138 192.063 296.138ZM198.568 286.545V296H196.601V286.545H198.568Z" fill="#B0521C"/>
<path d="M320 286H218V290H320V286Z" fill="#D6CDC1"/>
<path d="M320 312H160V315H320V312Z" fill="#CCC4B9"/>
<path d="M300 322H160V325H300V322Z" fill="#CCC4B9"/>
<path d="M260 332H160V335H260V332Z" fill="#CCC4B9"/>
<path d="M160 352H320" stroke="#1F1A14" stroke-opacity="0.15"/>
<path d="M160.391 367.395V366H166.961V367.395H164.512V374H162.84V367.395H160.391ZM169.853 374.117C169.246 374.117 168.721 373.988 168.278 373.73C167.838 373.47 167.498 373.108 167.259 372.645C167.019 372.178 166.899 371.638 166.899 371.023C166.899 370.404 167.019 369.862 167.259 369.398C167.498 368.932 167.838 368.57 168.278 368.312C168.721 368.052 169.246 367.922 169.853 367.922C170.459 367.922 170.983 368.052 171.423 368.312C171.866 368.57 172.207 368.932 172.446 369.398C172.686 369.862 172.806 370.404 172.806 371.023C172.806 371.638 172.686 372.178 172.446 372.645C172.207 373.108 171.866 373.47 171.423 373.73C170.983 373.988 170.459 374.117 169.853 374.117ZM169.86 372.828C170.136 372.828 170.367 372.75 170.552 372.594C170.737 372.435 170.876 372.219 170.97 371.945C171.066 371.672 171.114 371.361 171.114 371.012C171.114 370.663 171.066 370.352 170.97 370.078C170.876 369.805 170.737 369.589 170.552 369.43C170.367 369.271 170.136 369.191 169.86 369.191C169.582 369.191 169.347 369.271 169.157 369.43C168.97 369.589 168.828 369.805 168.731 370.078C168.638 370.352 168.591 370.663 168.591 371.012C168.591 371.361 168.638 371.672 168.731 371.945C168.828 372.219 168.97 372.435 169.157 372.594C169.347 372.75 169.582 372.828 169.86 372.828ZM177.079 368V369.25H173.466V368H177.079ZM174.286 366.562H175.95V372.156C175.95 372.31 175.974 372.43 176.021 372.516C176.067 372.599 176.132 372.658 176.216 372.691C176.302 372.725 176.401 372.742 176.513 372.742C176.591 372.742 176.669 372.736 176.747 372.723C176.825 372.707 176.885 372.695 176.927 372.687L177.188 373.926C177.105 373.952 176.988 373.982 176.837 374.016C176.686 374.052 176.502 374.074 176.286 374.082C175.885 374.098 175.534 374.044 175.231 373.922C174.932 373.799 174.699 373.609 174.532 373.352C174.366 373.094 174.284 372.768 174.286 372.375V366.562ZM179.874 374.113C179.491 374.113 179.15 374.047 178.851 373.914C178.551 373.779 178.314 373.579 178.14 373.316C177.968 373.051 177.882 372.72 177.882 372.324C177.882 371.991 177.943 371.711 178.065 371.484C178.188 371.258 178.354 371.076 178.565 370.937C178.776 370.799 179.016 370.695 179.284 370.625C179.555 370.555 179.839 370.505 180.136 370.477C180.485 370.44 180.766 370.406 180.979 370.375C181.193 370.341 181.348 370.292 181.444 370.227C181.541 370.161 181.589 370.065 181.589 369.937V369.914C181.589 369.667 181.511 369.475 181.354 369.34C181.201 369.204 180.982 369.137 180.698 369.137C180.399 369.137 180.16 369.203 179.983 369.336C179.806 369.466 179.689 369.63 179.632 369.828L178.093 369.703C178.171 369.339 178.325 369.023 178.554 368.758C178.783 368.49 179.078 368.284 179.44 368.141C179.805 367.995 180.227 367.922 180.706 367.922C181.039 367.922 181.358 367.961 181.663 368.039C181.97 368.117 182.243 368.238 182.479 368.402C182.719 368.566 182.908 368.777 183.046 369.035C183.184 369.29 183.253 369.596 183.253 369.953V374H181.675V373.168H181.628C181.532 373.355 181.403 373.521 181.241 373.664C181.08 373.805 180.886 373.915 180.659 373.996C180.433 374.074 180.171 374.113 179.874 374.113ZM180.351 372.965C180.595 372.965 180.812 372.917 180.999 372.82C181.187 372.721 181.334 372.589 181.44 372.422C181.547 372.255 181.601 372.066 181.601 371.855V371.219C181.549 371.253 181.477 371.284 181.386 371.312C181.297 371.339 181.197 371.363 181.085 371.387C180.973 371.408 180.861 371.427 180.749 371.445C180.637 371.461 180.535 371.475 180.444 371.488C180.249 371.517 180.078 371.562 179.933 371.625C179.787 371.687 179.674 371.772 179.593 371.879C179.512 371.983 179.472 372.113 179.472 372.27C179.472 372.496 179.554 372.669 179.718 372.789C179.884 372.906 180.095 372.965 180.351 372.965ZM186.208 366V374H184.544V366H186.208ZM190.275 374.117C189.658 374.117 189.127 373.992 188.682 373.742C188.239 373.49 187.898 373.133 187.658 372.672C187.419 372.208 187.299 371.66 187.299 371.027C187.299 370.41 187.419 369.868 187.658 369.402C187.898 368.936 188.235 368.573 188.67 368.312C189.107 368.052 189.62 367.922 190.209 367.922C190.605 367.922 190.973 367.986 191.314 368.113C191.658 368.238 191.958 368.427 192.213 368.68C192.471 368.932 192.671 369.25 192.814 369.633C192.958 370.013 193.029 370.458 193.029 370.969V371.426H187.963V370.395H191.463C191.463 370.155 191.411 369.943 191.307 369.758C191.202 369.573 191.058 369.428 190.873 369.324C190.691 369.217 190.479 369.164 190.236 369.164C189.984 369.164 189.76 369.223 189.564 369.34C189.372 369.454 189.221 369.609 189.111 369.805C189.002 369.997 188.946 370.212 188.943 370.449V371.43C188.943 371.727 188.998 371.983 189.107 372.199C189.219 372.415 189.377 372.582 189.58 372.699C189.783 372.816 190.024 372.875 190.303 372.875C190.488 372.875 190.657 372.849 190.811 372.797C190.964 372.745 191.096 372.667 191.205 372.562C191.314 372.458 191.398 372.331 191.455 372.18L192.994 372.281C192.916 372.651 192.756 372.974 192.514 373.25C192.274 373.523 191.964 373.737 191.584 373.891C191.206 374.042 190.77 374.117 190.275 374.117Z" fill="#6B6259"/>
<path d="M279.285 367.323L278.793 368.412H272.146L272.549 367.323H279.285ZM278.336 369.406L277.794 370.52H272.146L272.549 369.406H278.336ZM280.578 364.604L279.782 366.304C279.65 366.211 279.489 366.11 279.3 366.001C279.114 365.888 278.901 365.794 278.659 365.717C278.42 365.638 278.155 365.598 277.863 365.598C277.403 365.598 277.002 365.714 276.66 365.946C276.319 366.178 276.054 366.539 275.865 367.03C275.679 367.52 275.586 368.15 275.586 368.919C275.586 369.695 275.679 370.326 275.865 370.813C276.054 371.297 276.319 371.653 276.66 371.882C277.002 372.107 277.403 372.22 277.863 372.22C278.155 372.22 278.42 372.182 278.659 372.106C278.897 372.03 279.106 371.938 279.285 371.832C279.467 371.726 279.62 371.629 279.743 371.539L280.548 373.239C280.187 373.538 279.777 373.763 279.32 373.915C278.863 374.065 278.377 374.139 277.863 374.139C276.995 374.139 276.226 373.934 275.556 373.523C274.89 373.108 274.368 372.513 273.99 371.738C273.613 370.959 273.424 370.019 273.424 368.919C273.424 367.822 273.613 366.882 273.99 366.1C274.368 365.318 274.89 364.72 275.556 364.305C276.226 363.888 276.995 363.679 277.863 363.679C278.397 363.679 278.891 363.759 279.345 363.918C279.799 364.077 280.21 364.305 280.578 364.604ZM285.973 374.139C285.208 374.139 284.526 374.015 283.93 373.766C283.337 373.514 282.871 373.171 282.533 372.737C282.195 372.303 282.026 371.811 282.026 371.261C282.026 370.836 282.122 370.447 282.314 370.092C282.51 369.734 282.775 369.438 283.11 369.202C283.444 368.964 283.819 368.811 284.233 368.745V368.675C283.69 368.566 283.249 368.303 282.911 367.885C282.573 367.464 282.404 366.975 282.404 366.418C282.404 365.891 282.558 365.422 282.866 365.011C283.174 364.597 283.597 364.272 284.134 364.037C284.674 363.798 285.287 363.679 285.973 363.679C286.659 363.679 287.271 363.798 287.808 364.037C288.348 364.276 288.772 364.602 289.08 365.016C289.389 365.427 289.544 365.895 289.548 366.418C289.544 366.978 289.372 367.467 289.031 367.885C288.689 368.303 288.252 368.566 287.718 368.675V368.745C288.126 368.811 288.495 368.964 288.827 369.202C289.162 369.438 289.427 369.734 289.622 370.092C289.821 370.447 289.922 370.836 289.926 371.261C289.922 371.811 289.752 372.303 289.414 372.737C289.075 373.171 288.608 373.514 288.012 373.766C287.418 374.015 286.739 374.139 285.973 374.139ZM285.973 372.558C286.315 372.558 286.613 372.497 286.868 372.374C287.123 372.248 287.322 372.076 287.465 371.857C287.61 371.635 287.683 371.38 287.683 371.092C287.683 370.797 287.609 370.536 287.46 370.311C287.311 370.082 287.108 369.903 286.853 369.774C286.598 369.642 286.305 369.575 285.973 369.575C285.645 369.575 285.352 369.642 285.093 369.774C284.835 369.903 284.631 370.082 284.482 370.311C284.336 370.536 284.263 370.797 284.263 371.092C284.263 371.38 284.334 371.635 284.477 371.857C284.619 372.076 284.82 372.248 285.078 372.374C285.337 372.497 285.635 372.558 285.973 372.558ZM285.973 368.009C286.258 368.009 286.512 367.951 286.734 367.835C286.956 367.719 287.13 367.558 287.256 367.353C287.382 367.147 287.445 366.911 287.445 366.642C287.445 366.377 287.382 366.145 287.256 365.946C287.13 365.744 286.958 365.586 286.739 365.474C286.52 365.358 286.265 365.3 285.973 365.3C285.685 365.3 285.43 365.358 285.208 365.474C284.985 365.586 284.811 365.744 284.686 365.946C284.563 366.145 284.502 366.377 284.502 366.642C284.502 366.911 284.565 367.147 284.691 367.353C284.816 367.558 284.99 367.719 285.213 367.835C285.435 367.951 285.688 368.009 285.973 368.009ZM291.833 374L296.054 365.648V365.578H291.137V363.818H298.282V365.603L294.056 374H291.833ZM300.329 372.608L300.274 373.155C300.231 373.592 300.148 374.028 300.025 374.462C299.906 374.9 299.78 375.296 299.648 375.651C299.518 376.005 299.414 376.284 299.334 376.486H297.962C298.012 376.29 298.08 376.017 298.166 375.665C298.252 375.317 298.333 374.926 298.41 374.492C298.486 374.058 298.534 373.616 298.554 373.165L298.579 372.608H300.329ZM305.882 374.139C305.179 374.139 304.553 374.01 304.003 373.751C303.456 373.493 303.022 373.137 302.7 372.683C302.379 372.228 302.211 371.708 302.198 371.121H304.286C304.309 371.516 304.475 371.836 304.783 372.081C305.091 372.326 305.458 372.449 305.882 372.449C306.22 372.449 306.518 372.374 306.777 372.225C307.039 372.073 307.242 371.862 307.388 371.594C307.537 371.322 307.612 371.01 307.612 370.659C307.612 370.301 307.536 369.986 307.383 369.714C307.234 369.443 307.027 369.231 306.762 369.078C306.497 368.926 306.193 368.848 305.852 368.844C305.554 368.844 305.264 368.906 304.982 369.028C304.704 369.151 304.487 369.318 304.331 369.531L302.417 369.188L302.899 363.818H309.123V365.578H304.674L304.41 368.129H304.47C304.649 367.877 304.919 367.668 305.28 367.502C305.642 367.336 306.046 367.254 306.493 367.254C307.107 367.254 307.653 367.398 308.134 367.686C308.615 367.974 308.994 368.371 309.273 368.874C309.551 369.375 309.689 369.951 309.685 370.604C309.689 371.29 309.529 371.9 309.208 372.434C308.89 372.964 308.444 373.382 307.871 373.687C307.3 373.988 306.638 374.139 305.882 374.139ZM315.179 374.224C314.324 374.22 313.588 374.01 312.971 373.592C312.358 373.175 311.886 372.57 311.555 371.778C311.226 370.986 311.064 370.033 311.067 368.919C311.067 367.809 311.231 366.862 311.559 366.08C311.891 365.298 312.363 364.703 312.976 364.295C313.593 363.884 314.327 363.679 315.179 363.679C316.031 363.679 316.763 363.884 317.376 364.295C317.993 364.706 318.467 365.303 318.798 366.085C319.13 366.864 319.294 367.809 319.29 368.919C319.29 370.036 319.125 370.991 318.793 371.783C318.465 372.575 317.994 373.18 317.381 373.597C316.768 374.015 316.034 374.224 315.179 374.224ZM315.179 372.439C315.762 372.439 316.228 372.146 316.576 371.559C316.924 370.972 317.096 370.092 317.093 368.919C317.093 368.147 317.013 367.504 316.854 366.99C316.698 366.476 316.476 366.09 316.188 365.832C315.903 365.573 315.567 365.444 315.179 365.444C314.599 365.444 314.135 365.734 313.787 366.314C313.439 366.894 313.263 367.762 313.26 368.919C313.26 369.701 313.338 370.354 313.493 370.878C313.653 371.398 313.876 371.789 314.165 372.051C314.453 372.31 314.791 372.439 315.179 372.439Z" fill="#1F1A14"/>
</g>
<defs>
<filter id="filter0_f_6_345" x="139" y="79" width="202" height="322" filterUnits="userSpaceOnUse" color-interpolation-filters="sRGB">
<feFlood flood-opacity="0" result="BackgroundImageFix"/>
<feBlend mode="normal" in="SourceGraphic" in2="BackgroundImageFix" result="shape"/>
<feGaussianBlur stdDeviation="0.5" result="effect1_foregroundBlur_6_345"/>
</filter>
</defs>
</svg>
