<svg width="480" height="480" viewBox="0 0 480 480" fill="none" xmlns="http://www.w3.org/2000/svg">
<path d="M240 440C350.457 440 440 350.457 440 240C440 129.543 350.457 40 240 40C129.543 40 40 129.543 40 240C40 350.457 129.543 440 240 440Z" fill="url(#paint0_radial_5_87)"/>
<path d="M286 70H194C175.222 70 160 85.2223 160 104V376C160 394.778 175.222 410 194 410H286C304.778 410 320 394.778 320 376V104C320 85.2223 304.778 70 286 70Z" stroke="#1F1A14" stroke-width="8"/>
<path d="M256 84H224C221.791 84 220 85.7909 220 88V89C220 91.2091 221.791 93 224 93H256C258.209 93 260 91.2091 260 89V88C260 85.7909 258.209 84 256 84Z" fill="#1F1A14"/>
<path d="M288 106H192C179.85 106 170 115.85 170 128V378C170 390.15 179.85 400 192 400H288C300.15 400 310 390.15 310 378V128C310 115.85 300.15 106 288 106Z" fill="#FAF8F4"/>
<path d="M240 202L208 212V232C208 254 222.769 270 240 276C257.231 270 272 254 272 232V212L240 202Z" stroke="#B0521C" stroke-width="6" stroke-linecap="round" stroke-linejoin="round"/>
<path d="M249.846 232H230.154C228.794 232 227.692 232.895 227.692 234V248C227.692 249.105 228.794 250 230.154 250H249.846C251.206 250 252.308 249.105 252.308 248V234C252.308 232.895 251.206 232 249.846 232Z" fill="#B0521C"/>
<path d="M231.385 232V224C231.385 219 235.077 216 240 216C244.923 216 248.616 219 248.616 224V232" stroke="#B0521C" stroke-width="6" stroke-linecap="round" stroke-linejoin="round"/>
<path d="M269 292H211C210.448 292 210 292.448 210 293V294C210 294.552 210.448 295 211 295H269C269.552 295 270 294.552 270 294V293C270 292.448 269.552 292 269 292Z" fill="#D6CDC1"/>
<path d="M263 302H217C216.448 302 216 302.448 216 303V304C216 304.552 216.448 305 217 305H263C263.552 305 264 304.552 264 304V303C264 302.448 263.552 302 263 302Z" fill="#D6CDC1"/>
<path d="M271 312H209C208.448 312 208 312.448 208 313V314C208 314.552 208.448 315 209 315H271C271.552 315 272 314.552 272 314V313C272 312.448 271.552 312 271 312Z" fill="#D6CDC1"/>
<defs>
<radialGradient id="paint0_radial_5_87" cx="0" cy="0" r="1" gradientUnits="userSpaceOnUse" gradientTransform="translate(240 240) scale(232)">
<stop stop-color="#F4E5D2" stop-opacity="0.6"/>
<stop offset="1" stop-color="#F4E5D2" stop-opacity="0"/>
</radialGradient>
</defs>
</svg>
